<svg width="450" height="200" viewBox="0 0 450 200" fill="none" xmlns="http://www.w3.org/2000/svg">
<rect width="450" height="200%" fill="none"/>
<rect width="450" height="200" rx="16" fill="white"/>
<g filter="url(#filter0_d_0_1)">
<rect x="9" y="8" width="179" height="184" rx="16" fill="#C58889"/>
</g>
<g filter="url(#filter1_d_0_1)">
<path d="M155.281 76.4327C161.915 114.775 135.322 134.487 100.5 150.5C89.5025 155.557 66.2624 166.112 65.665 153.754C65.0676 141.395 61.6014 141.701 54.3504 133.398C56.83 128.887 53.5139 123.063 51.1235 120.07C49.4341 111.364 52.5 105.5 49.5 94.5C43.5 78.5 44.8488 83.7833 43.5 78C37.1259 50.67 54.3339 34.5415 88 22.5C123.658 16.8223 148.647 38.0901 155.281 76.4327Z" fill="#FFE4E3"/>
<path d="M58.5 114C57.3997 123.31 51.2263 122.431 43.5 117C37 112.431 51.1332 109.703 49.5 94.5C48.4141 84.392 53.5302 80.0373 59.8893 80.7299C66.2484 81.4225 59.6004 104.69 58.5 114Z" fill="#FFE4E3"/>
<path d="M72.8767 133.367C72.4805 136.719 66.9611 138.869 60.5485 138.171C54.136 137.473 53.6732 133.324 53.9122 131.302C55.5856 128.752 55.1077 121.187 61.983 126.034C68.3956 126.732 73.2728 130.015 72.8767 133.367Z" fill="#FFE4E3"/>
<path d="M74.6295 141.754C74.3214 144.36 68.8733 145.907 62.4608 145.209C56.0483 144.511 54.0024 142.147 54.3105 139.541C55.7848 132.871 57.164 135.071 63.5765 135.769C69.989 136.467 74.9376 139.147 74.6295 141.754Z" fill="#FFE4E3"/>
</g>
<g filter="url(#filter2_d_0_1)">
<path d="M267 41.4C270.2 41.4 272.6 42.45 274.2 44.55C275.9 46.65 276.75 49.25 276.75 52.35C276.75 54.35 276.4 56.45 275.7 58.65C275 60.85 274.2 62.85 273.3 64.65C272.9 64.95 272.5 65.05 272.1 64.95C271.8 64.75 271.7 64.4 271.8 63.9C272.5 62.1 272.85 60.25 272.85 58.35C272.85 56.45 272.45 54.75 271.65 53.25C270.95 51.65 269.75 50.35 268.05 49.35C266.45 48.35 264.4 47.85 261.9 47.85C258.3 47.85 255 48.55 252 49.95C249 51.25 246.2 53.6 243.6 57C241.1 60.4 238.7 65.05 236.4 70.95C234.1 76.75 231.8 84.15 229.5 93.15C227.6 100.35 225.4 106.65 222.9 112.05C220.4 117.45 217.5 122 214.2 125.7C218.5 127.4 223 128.9 227.7 130.2C232.5 131.5 237.85 132.15 243.75 132.15C248.45 132.15 252.3 131.35 255.3 129.75C258.4 128.05 261.1 124.9 263.4 120.3C263.8 120.1 264.15 120.15 264.45 120.45C264.75 120.65 264.8 121 264.6 121.5C262.2 126.9 259 131 255 133.8C251 136.6 245.65 138 238.95 138C233.05 138 227.8 137.15 223.2 135.45C218.6 133.75 214.15 131.9 209.85 129.9C203.15 135.3 194.55 138 184.05 138C180.25 138 177.35 137.25 175.35 135.75C173.45 134.15 172.5 132.45 172.5 130.65C172.5 129.35 172.85 128.05 173.55 126.75C174.35 125.35 175.45 124.15 176.85 123.15C178.35 122.05 180.1 121.15 182.1 120.45C184.1 119.75 186.35 119.4 188.85 119.4C192.75 119.4 196.5 119.95 200.1 121.05C203.8 122.15 207.55 123.4 211.35 124.8C215.85 119 219.8 109.7 223.2 96.9C225.4 88.7 227.95 81.2 230.85 74.4C233.85 67.5 237.15 61.65 240.75 56.85C244.45 51.95 248.5 48.15 252.9 45.45C257.3 42.75 262 41.4 267 41.4ZM188.85 134.85C192.65 134.85 196.05 134.4 199.05 133.5C202.05 132.6 204.85 131.05 207.45 128.85C203.95 127.15 200.35 125.7 196.65 124.5C193.05 123.3 189.05 122.7 184.65 122.7C181.85 122.7 179.85 123.15 178.65 124.05C177.45 124.95 176.85 126.1 176.85 127.5C176.85 129.5 177.9 131.25 180 132.75C182.1 134.15 185.05 134.85 188.85 134.85ZM307.084 128.55C307.284 128.35 307.534 128.35 307.834 128.55C308.134 128.75 308.234 129.05 308.134 129.45C306.034 132.35 303.934 134.5 301.834 135.9C299.834 137.3 298.134 138 296.734 138C295.834 138 295.084 137.55 294.484 136.65C293.984 135.75 293.634 134.55 293.434 133.05C293.334 131.45 293.384 129.7 293.584 127.8C293.884 125.8 294.334 123.75 294.934 121.65C292.234 125.85 289.384 129.5 286.384 132.6C283.384 135.6 280.484 137.4 277.684 138C275.884 138 274.334 137.15 273.034 135.45C271.834 133.65 271.234 130.9 271.234 127.2C271.234 123.9 271.884 120.65 273.184 117.45C274.584 114.15 276.434 111.2 278.734 108.6C281.034 105.9 283.684 103.75 286.684 102.15C289.684 100.55 292.834 99.75 296.134 99.75C297.934 99.75 299.484 99.95 300.784 100.35C302.084 100.75 303.284 101.35 304.384 102.15C304.984 101.65 305.784 101.2 306.784 100.8C307.884 100.3 308.884 100.05 309.784 100.05C310.284 100.05 310.434 100.3 310.234 100.8C307.934 103.6 305.934 106.7 304.234 110.1C302.634 113.5 301.384 116.8 300.484 120C299.584 123.2 298.984 126.05 298.684 128.55C298.484 130.95 298.684 132.6 299.284 133.5C299.784 134.2 300.684 134.25 301.984 133.65C303.284 132.95 304.984 131.25 307.084 128.55ZM280.984 132.9C282.084 132.9 283.484 132.15 285.184 130.65C286.984 129.05 288.834 127 290.734 124.5C292.634 122 294.484 119.2 296.284 116.1C298.184 112.9 299.834 109.7 301.234 106.5C300.834 105.2 299.884 104.15 298.384 103.35C296.984 102.55 295.334 102.15 293.434 102.15C291.234 102.15 289.134 102.75 287.134 103.95C285.234 105.05 283.534 106.65 282.034 108.75C280.534 110.75 279.334 113.15 278.434 115.95C277.534 118.75 277.084 121.85 277.084 125.25C277.084 127.45 277.434 129.3 278.134 130.8C278.934 132.2 279.884 132.9 280.984 132.9ZM318.476 110.1C318.176 110.3 317.876 110.25 317.576 109.95C317.376 109.55 317.376 109.2 317.576 108.9C318.976 107.5 320.876 105.9 323.276 104.1C325.676 102.3 328.076 100.8 330.476 99.6C331.276 99.6 331.676 100.05 331.676 100.95C330.376 103.25 329.076 105.75 327.776 108.45C326.576 111.15 325.476 113.85 324.476 116.55C323.576 119.15 322.826 121.7 322.226 124.2C321.626 126.6 321.326 128.6 321.326 130.2C321.326 132.3 322.026 133.35 323.426 133.35C324.526 133.35 325.576 132.9 326.576 132C327.676 131 328.926 129.7 330.326 128.1C330.526 127.9 330.776 127.95 331.076 128.25C331.376 128.55 331.426 128.9 331.226 129.3C329.426 131.5 327.476 133.5 325.376 135.3C323.376 137.1 321.476 138 319.676 138C317.076 138 315.776 136.35 315.776 133.05C315.776 131.15 316.076 128.9 316.676 126.3C317.376 123.6 318.226 120.9 319.226 118.2C320.226 115.5 321.326 112.9 322.526 110.4C323.826 107.9 325.076 105.75 326.276 103.95C325.176 104.75 323.776 105.8 322.076 107.1C320.476 108.3 319.276 109.3 318.476 110.1ZM331.976 93.15C331.676 93.45 331.376 93.5 331.076 93.3C330.876 93 330.726 92.65 330.626 92.25C330.526 91.75 330.476 91.2 330.476 90.6C330.476 90 330.626 89.5 330.926 89.1C333.526 85.5 337.176 81.65 341.876 77.55C342.176 77.45 342.476 77.55 342.776 77.85C343.076 78.05 343.126 78.25 342.926 78.45C340.826 80.35 338.826 82.65 336.926 85.35C335.026 87.95 333.376 90.55 331.976 93.15Z" fill="#005C74"/>
</g>
<g filter="url(#filter3_d_0_1)">
<path d="M326.238 155C326.363 154.883 326.426 154.711 326.426 154.484C326.426 154.422 326.406 154.305 326.367 154.133C325.992 154.117 325.684 154.09 325.441 154.051C325.207 154.012 324.992 153.918 324.797 153.77C324.602 153.621 324.504 153.398 324.504 153.102C324.504 152.477 324.68 151.41 325.031 149.902C325.383 148.395 325.824 146.645 326.355 144.652L326.848 142.73C326.949 142.301 327.094 141.969 327.281 141.734C327.469 141.492 327.707 141.324 327.996 141.23C328.285 141.129 328.656 141.078 329.109 141.078L329.355 140.422L329.262 140.188H323.156C323.031 140.312 322.969 140.488 322.969 140.715C322.969 140.762 322.973 140.82 322.98 140.891C322.996 140.961 323.008 141.02 323.016 141.066C323.383 141.082 323.688 141.109 323.93 141.148C324.172 141.18 324.391 141.27 324.586 141.418C324.781 141.559 324.879 141.781 324.879 142.086C324.879 142.586 324.824 143.082 324.715 143.574C324.613 144.066 324.453 144.688 324.234 145.438C324.047 146.094 323.914 146.582 323.836 146.902H317.145L318.094 142.742C318.242 142.117 318.48 141.68 318.809 141.43C319.137 141.18 319.625 141.055 320.273 141.055C320.43 140.828 320.508 140.617 320.508 140.422C320.508 140.383 320.496 140.34 320.473 140.293C320.449 140.238 320.434 140.203 320.426 140.188H314.414C314.289 140.312 314.227 140.488 314.227 140.715C314.227 140.762 314.23 140.82 314.238 140.891C314.254 140.953 314.266 141.008 314.273 141.055C314.633 141.07 314.934 141.098 315.176 141.137C315.426 141.168 315.648 141.254 315.844 141.395C316.039 141.535 316.137 141.754 316.137 142.051C316.137 142.887 315.988 143.957 315.691 145.262C315.395 146.559 314.98 148.164 314.449 150.078C314.379 150.328 314.273 150.711 314.133 151.227C313.992 151.734 313.883 152.148 313.805 152.469C313.648 153.094 313.395 153.527 313.043 153.77C312.699 154.004 312.199 154.121 311.543 154.121L311.297 154.777L311.379 155H317.484C317.609 154.875 317.672 154.699 317.672 154.473C317.672 154.426 317.664 154.367 317.648 154.297C317.641 154.227 317.633 154.172 317.625 154.133C317.25 154.117 316.941 154.09 316.699 154.051C316.457 154.004 316.238 153.906 316.043 153.758C315.855 153.609 315.762 153.383 315.762 153.078C315.762 152.523 315.828 151.957 315.961 151.379C316.094 150.801 316.289 150.086 316.547 149.234C316.781 148.445 316.934 147.898 317.004 147.594H323.695L322.547 152.457C322.398 153.082 322.16 153.52 321.832 153.77C321.504 154.012 321.016 154.133 320.367 154.133L320.133 154.777L320.227 155H326.238ZM340.266 151.66C339.812 152.262 339.391 152.762 339 153.16C338.617 153.551 338.254 153.746 337.91 153.746C337.652 153.746 337.465 153.645 337.348 153.441C337.238 153.23 337.184 152.965 337.184 152.645C337.184 152.262 337.242 151.809 337.359 151.285C337.484 150.762 337.652 150.164 337.863 149.492L338.941 145.988C338.98 145.832 339 145.73 339 145.684C339 145.457 338.902 145.266 338.707 145.109C338.52 144.953 338.289 144.875 338.016 144.875C337.844 144.875 337.707 144.922 337.605 145.016C337.504 145.102 337.426 145.227 337.371 145.391L336.902 146.926C336.879 146.598 336.762 146.25 336.551 145.883C336.348 145.516 336.039 145.203 335.625 144.945C335.211 144.688 334.691 144.559 334.066 144.559C333.082 144.559 332.172 144.879 331.336 145.52C330.508 146.152 329.848 146.984 329.355 148.016C328.871 149.039 328.629 150.109 328.629 151.227C328.629 152.125 328.773 152.875 329.062 153.477C329.352 154.07 329.73 154.512 330.199 154.801C330.676 155.082 331.191 155.223 331.746 155.223C333.535 155.223 334.914 154.121 335.883 151.918C335.781 152.613 335.73 153.031 335.73 153.172C335.73 153.734 335.816 154.172 335.988 154.484C336.168 154.789 336.359 154.992 336.562 155.094C336.773 155.195 336.953 155.246 337.102 155.246C337.836 155.246 338.539 154.91 339.211 154.238C339.891 153.566 340.527 152.789 341.121 151.906L340.488 151.367L340.266 151.66ZM336.398 148.168C336.398 148.988 336.199 149.852 335.801 150.758C335.41 151.664 334.902 152.422 334.277 153.031C333.652 153.633 333.016 153.934 332.367 153.934C331.828 153.934 331.395 153.676 331.066 153.16C330.746 152.645 330.586 151.902 330.586 150.934C330.586 149.988 330.777 149.113 331.16 148.309C331.551 147.496 332.035 146.852 332.613 146.375C333.191 145.898 333.734 145.66 334.242 145.66C334.633 145.66 334.992 145.777 335.32 146.012C335.656 146.246 335.918 146.559 336.105 146.949C336.301 147.332 336.398 147.738 336.398 148.168ZM346.816 142.215C347.121 142.215 347.363 142.117 347.543 141.922C347.723 141.727 347.812 141.41 347.812 140.973C347.766 140.551 347.605 140.223 347.332 139.988C347.066 139.754 346.758 139.637 346.406 139.637C346.094 139.637 345.836 139.73 345.633 139.918C345.438 140.105 345.34 140.379 345.34 140.738C345.34 141.035 345.414 141.297 345.562 141.523C345.711 141.75 345.898 141.922 346.125 142.039C346.359 142.156 346.59 142.215 346.816 142.215ZM346.992 152.551C346.688 153.012 346.406 153.359 346.148 153.594C345.891 153.82 345.645 153.934 345.41 153.934C345.168 153.934 345 153.852 344.906 153.688C344.82 153.516 344.777 153.316 344.777 153.09C344.777 152.895 344.797 152.699 344.836 152.504C344.875 152.301 344.918 152.141 344.965 152.023L346.195 148.238C346.383 147.652 346.477 147.082 346.477 146.527C346.477 145.215 345.906 144.559 344.766 144.559C344.328 144.559 343.918 144.68 343.535 144.922C343.152 145.164 342.793 145.48 342.457 145.871C342.121 146.254 341.703 146.781 341.203 147.453L341.812 147.91C342.477 146.996 342.969 146.375 343.289 146.047C343.617 145.719 343.887 145.555 344.098 145.555C344.309 145.555 344.469 145.629 344.578 145.777C344.695 145.918 344.754 146.109 344.754 146.352C344.754 146.531 344.719 146.727 344.648 146.938C344.578 147.141 344.535 147.273 344.52 147.336L343.336 150.664C343.156 151.156 343.02 151.594 342.926 151.977C342.832 152.359 342.785 152.73 342.785 153.09C342.785 153.473 342.859 153.828 343.008 154.156C343.164 154.484 343.379 154.746 343.652 154.941C343.934 155.129 344.262 155.223 344.637 155.223C345.262 155.223 345.82 155.031 346.312 154.648C346.805 154.258 347.27 153.746 347.707 153.113L348.422 152.07L347.66 151.543L346.992 152.551ZM352.336 144.781C351.625 144.781 350.969 145.043 350.367 145.566C349.773 146.09 349.184 146.781 348.598 147.641L349.23 148.238C349.52 147.777 349.758 147.414 349.945 147.148C350.133 146.883 350.359 146.629 350.625 146.387C350.898 146.137 351.164 146.012 351.422 146.012C351.609 146.012 351.738 146.078 351.809 146.211C351.879 146.336 351.914 146.457 351.914 146.574C351.914 146.941 351.82 147.539 351.633 148.367C351.453 149.188 351.125 150.316 350.648 151.754C350.547 152.059 350.496 152.211 350.496 152.211C350.34 152.648 350.223 153.004 350.145 153.277C350.066 153.551 350.027 153.805 350.027 154.039C350.027 154.422 350.09 154.703 350.215 154.883C350.348 155.062 350.52 155.152 350.73 155.152C351.051 155.152 351.332 155.039 351.574 154.812C351.816 154.586 352.066 154.234 352.324 153.758C352.637 153.094 353.066 152.297 353.613 151.367C354.168 150.438 354.738 149.586 355.324 148.812C355.91 148.039 356.414 147.547 356.836 147.336C356.938 147.281 357.07 147.223 357.234 147.16C357.398 147.098 357.527 147.047 357.621 147.008C358.004 146.859 358.312 146.73 358.547 146.621C358.789 146.512 358.992 146.371 359.156 146.199C359.328 146.027 359.414 145.824 359.414 145.59C359.414 145.316 359.301 145.074 359.074 144.863C358.848 144.652 358.598 144.547 358.324 144.547C357.777 144.547 357.238 144.785 356.707 145.262C356.184 145.73 355.719 146.277 355.312 146.902C354.906 147.527 354.453 148.281 353.953 149.164C353.758 149.516 353.586 149.812 353.438 150.055L352.359 151.977L352.137 151.883L352.348 151.238C352.785 149.934 353.105 148.91 353.309 148.168C353.52 147.418 353.625 146.789 353.625 146.281C353.625 145.836 353.516 145.477 353.297 145.203C353.086 144.922 352.766 144.781 352.336 144.781ZM361.336 146.738C361.336 145.91 361.645 145.496 362.262 145.496C362.652 145.496 363 145.566 363.305 145.707C363.617 145.848 363.883 146.016 364.102 146.211C364.328 146.406 364.574 146.652 364.84 146.949C365.105 147.238 365.32 147.449 365.484 147.582C365.648 147.707 365.82 147.77 366 147.77C366.172 147.77 366.316 147.715 366.434 147.605C366.551 147.496 366.609 147.363 366.609 147.207C366.609 146.652 366.426 146.176 366.059 145.777C365.691 145.371 365.234 145.066 364.688 144.863C364.141 144.66 363.602 144.559 363.07 144.559C362.547 144.559 362.039 144.637 361.547 144.793C361.062 144.949 360.66 145.199 360.34 145.543C360.02 145.887 359.859 146.328 359.859 146.867C359.859 147.367 359.965 147.812 360.176 148.203C360.395 148.594 360.656 148.926 360.961 149.199C361.273 149.473 361.688 149.793 362.203 150.16C362.672 150.488 363.039 150.773 363.305 151.016C363.578 151.25 363.809 151.527 363.996 151.848C364.184 152.16 364.277 152.512 364.277 152.902C364.277 153.363 364.191 153.695 364.02 153.898C363.848 154.094 363.609 154.191 363.305 154.191C362.305 154.152 361.535 153.918 360.996 153.488C360.465 153.051 360.102 152.676 359.906 152.363C359.719 152.043 359.617 151.883 359.602 151.883C358.906 151.883 358.559 152.176 358.559 152.762C358.559 153.293 358.781 153.746 359.227 154.121C359.68 154.488 360.23 154.766 360.879 154.953C361.527 155.133 362.145 155.223 362.73 155.223C363.621 155.223 364.367 155.027 364.969 154.637C365.578 154.238 365.883 153.617 365.883 152.773C365.883 152.164 365.754 151.625 365.496 151.156C365.238 150.688 364.926 150.293 364.559 149.973C364.199 149.652 363.73 149.289 363.152 148.883C362.73 148.586 362.398 148.34 362.156 148.145C361.922 147.949 361.727 147.734 361.57 147.5C361.414 147.266 361.336 147.012 361.336 146.738ZM367.805 145.93H370.184L368.824 150.523C368.512 151.562 368.355 152.453 368.355 153.195L368.344 153.207C368.344 153.84 368.477 154.34 368.742 154.707C369.008 155.066 369.465 155.246 370.113 155.246C370.715 155.246 371.254 155.059 371.73 154.684C372.207 154.309 372.652 153.812 373.066 153.195L373.746 152.094L372.984 151.566L372.375 152.621C371.859 153.512 371.379 153.957 370.934 153.957C370.512 153.957 370.301 153.652 370.301 153.043C370.301 152.855 370.332 152.648 370.395 152.422C370.465 152.195 370.508 152.047 370.523 151.977L372.082 145.941H374.871L375.117 144.781H372.258C372.328 144.578 372.453 144.227 372.633 143.727C372.812 143.219 373.004 142.672 373.207 142.086C373.309 141.805 373.391 141.578 373.453 141.406C373.516 141.227 373.562 141.094 373.594 141.008C373.609 140.969 373.594 140.91 373.547 140.832C373.508 140.754 373.445 140.688 373.359 140.633C373.281 140.57 373.188 140.539 373.078 140.539C372.727 140.539 372.375 140.891 372.023 141.594C371.68 142.289 371.324 143.156 370.957 144.195L370.746 144.781H368.145L367.805 145.93ZM383.707 144.559C383.129 144.559 382.84 144.844 382.84 145.414C382.84 145.672 382.875 145.922 382.945 146.164C383.023 146.398 383.137 146.703 383.285 147.078C383.457 147.5 383.586 147.859 383.672 148.156C383.766 148.453 383.812 148.773 383.812 149.117C383.812 149.461 383.656 149.953 383.344 150.594C383.039 151.234 382.695 151.867 382.312 152.492C381.938 153.109 381.633 153.586 381.398 153.922C381.258 153.477 380.887 152.23 380.285 150.184L379.09 146.199C378.941 145.723 378.734 145.332 378.469 145.027C378.203 144.715 377.887 144.559 377.52 144.559C377.074 144.559 376.664 144.699 376.289 144.98C375.922 145.262 375.586 145.613 375.281 146.035C374.984 146.457 374.621 147.031 374.191 147.758L374.801 148.273C374.855 148.203 374.938 148.07 375.047 147.875C375.359 147.352 375.656 146.926 375.938 146.598C376.219 146.262 376.508 146.094 376.805 146.094C377.016 146.094 377.238 146.344 377.473 146.844C377.707 147.336 377.969 148.082 378.258 149.082C378.523 150.012 378.863 151.168 379.277 152.551C379.699 153.926 379.977 154.832 380.109 155.27C379.414 156.004 378.887 156.535 378.527 156.863C378.168 157.191 377.863 157.414 377.613 157.531C377.363 157.656 377.082 157.719 376.77 157.719C376.605 157.719 376.438 157.699 376.266 157.66C376.102 157.629 375.895 157.578 375.645 157.508C375.215 157.375 374.879 157.309 374.637 157.309C374.27 157.309 373.957 157.375 373.699 157.508C373.441 157.641 373.312 157.836 373.312 158.094C373.312 158.43 373.438 158.715 373.688 158.949C373.93 159.184 374.23 159.359 374.59 159.477C374.949 159.594 375.297 159.652 375.633 159.652C376.977 159.652 378.426 158.953 379.98 157.555C381.543 156.164 382.859 154.496 383.93 152.551C385.008 150.598 385.547 148.891 385.547 147.43L385.523 147.453C385.523 147.086 385.465 146.68 385.348 146.234C385.23 145.781 385.035 145.391 384.762 145.062C384.488 144.727 384.137 144.559 383.707 144.559ZM387.891 151.016C387.75 151.477 387.645 151.859 387.574 152.164C387.512 152.461 387.484 152.758 387.492 153.055C387.492 153.672 387.648 154.188 387.961 154.602C388.281 155.016 388.719 155.223 389.273 155.223C389.922 155.223 390.5 155.027 391.008 154.637C391.523 154.246 391.996 153.738 392.426 153.113L393.141 152.07L392.379 151.543L391.711 152.551C391.094 153.473 390.551 153.934 390.082 153.934C389.871 153.934 389.711 153.848 389.602 153.676C389.5 153.496 389.449 153.277 389.449 153.02C389.449 152.762 389.508 152.418 389.625 151.988L392.672 140.621C392.68 140.574 392.711 140.438 392.766 140.211C392.82 139.977 392.848 139.797 392.848 139.672C392.848 139.523 392.812 139.418 392.742 139.355C392.68 139.293 392.582 139.262 392.449 139.262C392.402 139.262 392.324 139.27 392.215 139.285L391.559 139.367C390.73 139.469 390.129 139.551 389.754 139.613C389.379 139.668 389.086 139.742 388.875 139.836C388.664 139.922 388.559 140.039 388.559 140.188C388.559 140.391 388.652 140.508 388.84 140.539L390.727 140.656L388.031 150.523L387.891 151.016ZM399.199 142.215C399.504 142.215 399.746 142.117 399.926 141.922C400.105 141.727 400.195 141.41 400.195 140.973C400.148 140.551 399.988 140.223 399.715 139.988C399.449 139.754 399.141 139.637 398.789 139.637C398.477 139.637 398.219 139.73 398.016 139.918C397.82 140.105 397.723 140.379 397.723 140.738C397.723 141.035 397.797 141.297 397.945 141.523C398.094 141.75 398.281 141.922 398.508 142.039C398.742 142.156 398.973 142.215 399.199 142.215ZM399.375 152.551C399.07 153.012 398.789 153.359 398.531 153.594C398.273 153.82 398.027 153.934 397.793 153.934C397.551 153.934 397.383 153.852 397.289 153.688C397.203 153.516 397.16 153.316 397.16 153.09C397.16 152.895 397.18 152.699 397.219 152.504C397.258 152.301 397.301 152.141 397.348 152.023L398.578 148.238C398.766 147.652 398.859 147.082 398.859 146.527C398.859 145.215 398.289 144.559 397.148 144.559C396.711 144.559 396.301 144.68 395.918 144.922C395.535 145.164 395.176 145.48 394.84 145.871C394.504 146.254 394.086 146.781 393.586 147.453L394.195 147.91C394.859 146.996 395.352 146.375 395.672 146.047C396 145.719 396.27 145.555 396.48 145.555C396.691 145.555 396.852 145.629 396.961 145.777C397.078 145.918 397.137 146.109 397.137 146.352C397.137 146.531 397.102 146.727 397.031 146.938C396.961 147.141 396.918 147.273 396.902 147.336L395.719 150.664C395.539 151.156 395.402 151.594 395.309 151.977C395.215 152.359 395.168 152.73 395.168 153.09C395.168 153.473 395.242 153.828 395.391 154.156C395.547 154.484 395.762 154.746 396.035 154.941C396.316 155.129 396.645 155.223 397.02 155.223C397.645 155.223 398.203 155.031 398.695 154.648C399.188 154.258 399.652 153.746 400.09 153.113L400.805 152.07L400.043 151.543L399.375 152.551ZM403.781 146.738C403.781 145.91 404.09 145.496 404.707 145.496C405.098 145.496 405.445 145.566 405.75 145.707C406.062 145.848 406.328 146.016 406.547 146.211C406.773 146.406 407.02 146.652 407.285 146.949C407.551 147.238 407.766 147.449 407.93 147.582C408.094 147.707 408.266 147.77 408.445 147.77C408.617 147.77 408.762 147.715 408.879 147.605C408.996 147.496 409.055 147.363 409.055 147.207C409.055 146.652 408.871 146.176 408.504 145.777C408.137 145.371 407.68 145.066 407.133 144.863C406.586 144.66 406.047 144.559 405.516 144.559C404.992 144.559 404.484 144.637 403.992 144.793C403.508 144.949 403.105 145.199 402.785 145.543C402.465 145.887 402.305 146.328 402.305 146.867C402.305 147.367 402.41 147.812 402.621 148.203C402.84 148.594 403.102 148.926 403.406 149.199C403.719 149.473 404.133 149.793 404.648 150.16C405.117 150.488 405.484 150.773 405.75 151.016C406.023 151.25 406.254 151.527 406.441 151.848C406.629 152.16 406.723 152.512 406.723 152.902C406.723 153.363 406.637 153.695 406.465 153.898C406.293 154.094 406.055 154.191 405.75 154.191C404.75 154.152 403.98 153.918 403.441 153.488C402.91 153.051 402.547 152.676 402.352 152.363C402.164 152.043 402.062 151.883 402.047 151.883C401.352 151.883 401.004 152.176 401.004 152.762C401.004 153.293 401.227 153.746 401.672 154.121C402.125 154.488 402.676 154.766 403.324 154.953C403.973 155.133 404.59 155.223 405.176 155.223C406.066 155.223 406.812 155.027 407.414 154.637C408.023 154.238 408.328 153.617 408.328 152.773C408.328 152.164 408.199 151.625 407.941 151.156C407.684 150.688 407.371 150.293 407.004 149.973C406.645 149.652 406.176 149.289 405.598 148.883C405.176 148.586 404.844 148.34 404.602 148.145C404.367 147.949 404.172 147.734 404.016 147.5C403.859 147.266 403.781 147.012 403.781 146.738ZM410.25 145.93H412.629L411.27 150.523C410.957 151.562 410.801 152.453 410.801 153.195L410.789 153.207C410.789 153.84 410.922 154.34 411.188 154.707C411.453 155.066 411.91 155.246 412.559 155.246C413.16 155.246 413.699 155.059 414.176 154.684C414.652 154.309 415.098 153.812 415.512 153.195L416.191 152.094L415.43 151.566L414.82 152.621C414.305 153.512 413.824 153.957 413.379 153.957C412.957 153.957 412.746 153.652 412.746 153.043C412.746 152.855 412.777 152.648 412.84 152.422C412.91 152.195 412.953 152.047 412.969 151.977L414.527 145.941H417.316L417.562 144.781H414.703C414.773 144.578 414.898 144.227 415.078 143.727C415.258 143.219 415.449 142.672 415.652 142.086C415.754 141.805 415.836 141.578 415.898 141.406C415.961 141.227 416.008 141.094 416.039 141.008C416.055 140.969 416.039 140.91 415.992 140.832C415.953 140.754 415.891 140.688 415.805 140.633C415.727 140.57 415.633 140.539 415.523 140.539C415.172 140.539 414.82 140.891 414.469 141.594C414.125 142.289 413.77 143.156 413.402 144.195L413.191 144.781H410.59L410.25 145.93Z" fill="#005C74"/>
</g>
<g filter="url(#filter4_d_0_1)">
<path d="M83.0642 111.5C83.0642 124.052 66.0642 149 85.2247 168C83.6247 168.937 59.2248 137.5 73.7248 116.427C81.8646 104.598 80.0642 56.5 56.5 73C31 59.5 45.5 34 71.5642 84C85.9236 84 83.0642 94.9314 83.0642 111.5Z" fill="#FFBEBE"/>
<path d="M75.1606 132.108C75.1606 144.66 92.1606 169.608 73 188.608C74.6 189.546 99 158.108 84.5 137.036C76.3602 125.206 78.1605 77.1083 101.725 93.6083C127.225 80.1083 112.725 54.6083 86.6606 104.608C72.3012 104.608 75.1606 115.54 75.1606 132.108Z" fill="#FFBEBE"/>
<path d="M162.13 89.7105C165.913 100.495 158.972 127.001 180.994 137.609C179.915 138.892 149.689 119.161 155.672 96.73C159.03 84.1383 143.005 43.3508 127.935 64.5566C102.179 60.5647 106.827 34.3302 144.062 69.5138C156.275 65.2302 157.138 75.4752 162.13 89.7105Z" fill="#FFBEBE"/>
<path d="M123.966 139.305C117.915 149 92.8903 160.158 98.3822 183.977C96.7069 183.937 93.2043 148.011 114.45 138.654C126.376 133.401 148.185 95.3907 122.213 96.8907C109.223 74.2946 132.602 61.5175 128.429 112.576C139.409 119.428 131.953 126.507 123.966 139.305Z" fill="#FFBEBE"/>
<path d="M168 132.649C173 150 97 145 84.1455 194C84.1455 88.566 70 87.6014 48 70.5C26 53.3987 74.6824 16.1332 101.847 19.2265C129.011 22.3198 168 49.6443 168 132.649Z" fill="#FFBEBE"/>
<path d="M57.5 73.3446C57.5 87.1517 68.3071 85.8446 54.5 85.8446C40.6929 85.8446 29.5 87.1517 29.5 73.3446C29.5 59.5374 40.6929 48.3446 54.5 48.3446C68.3071 48.3446 57.5 59.5374 57.5 73.3446Z" fill="#FFBEBE"/>
</g>
<defs>
<filter id="filter0_d_0_1" x="5" y="8" width="187" height="192" filterUnits="userSpaceOnUse" color-interpolation-filters="sRGB">
<feFlood flood-opacity="0" result="BackgroundImageFix"/>
<feColorMatrix in="SourceAlpha" type="matrix" values="0 0 0 0 0 0 0 0 0 0 0 0 0 0 0 0 0 0 127 0" result="hardAlpha"/>
<feOffset dy="4"/>
<feGaussianBlur stdDeviation="2"/>
<feComposite in2="hardAlpha" operator="out"/>
<feColorMatrix type="matrix" values="0 0 0 0 0 0 0 0 0 0 0 0 0 0 0 0 0 0 0.25 0"/>
<feBlend mode="normal" in2="BackgroundImageFix" result="effect1_dropShadow_0_1"/>
<feBlend mode="normal" in="SourceGraphic" in2="effect1_dropShadow_0_1" result="shape"/>
</filter>
<filter id="filter1_d_0_1" x="37.7799" y="21.5909" width="122.521" height="145.939" filterUnits="userSpaceOnUse" color-interpolation-filters="sRGB">
<feFlood flood-opacity="0" result="BackgroundImageFix"/>
<feColorMatrix in="SourceAlpha" type="matrix" values="0 0 0 0 0 0 0 0 0 0 0 0 0 0 0 0 0 0 127 0" result="hardAlpha"/>
<feOffset dy="4"/>
<feGaussianBlur stdDeviation="2"/>
<feComposite in2="hardAlpha" operator="out"/>
<feColorMatrix type="matrix" values="0 0 0 0 0 0 0 0 0 0 0 0 0 0 0 0 0 0 0.25 0"/>
<feBlend mode="normal" in2="BackgroundImageFix" result="effect1_dropShadow_0_1"/>
<feBlend mode="normal" in="SourceGraphic" in2="effect1_dropShadow_0_1" result="shape"/>
</filter>
<filter id="filter2_d_0_1" x="168.5" y="41.4" width="178.726" height="104.6" filterUnits="userSpaceOnUse" color-interpolation-filters="sRGB">
<feFlood flood-opacity="0" result="BackgroundImageFix"/>
<feColorMatrix in="SourceAlpha" type="matrix" values="0 0 0 0 0 0 0 0 0 0 0 0 0 0 0 0 0 0 127 0" result="hardAlpha"/>
<feOffset dy="4"/>
<feGaussianBlur stdDeviation="2"/>
<feComposite in2="hardAlpha" operator="out"/>
<feColorMatrix type="matrix" values="0 0 0 0 0 0 0 0 0 0 0 0 0 0 0 0 0 0 0.25 0"/>
<feBlend mode="normal" in2="BackgroundImageFix" result="effect1_dropShadow_0_1"/>
<feBlend mode="normal" in="SourceGraphic" in2="effect1_dropShadow_0_1" result="shape"/>
</filter>
<filter id="filter3_d_0_1" x="307.297" y="139.262" width="114.266" height="28.3906" filterUnits="userSpaceOnUse" color-interpolation-filters="sRGB">
<feFlood flood-opacity="0" result="BackgroundImageFix"/>
<feColorMatrix in="SourceAlpha" type="matrix" values="0 0 0 0 0 0 0 0 0 0 0 0 0 0 0 0 0 0 127 0" result="hardAlpha"/>
<feOffset dy="4"/>
<feGaussianBlur stdDeviation="2"/>
<feComposite in2="hardAlpha" operator="out"/>
<feColorMatrix type="matrix" values="0 0 0 0 0 0 0 0 0 0 0 0 0 0 0 0 0 0 0.25 0"/>
<feBlend mode="normal" in2="BackgroundImageFix" result="effect1_dropShadow_0_1"/>
<feBlend mode="normal" in="SourceGraphic" in2="effect1_dropShadow_0_1" result="shape"/>
</filter>
<filter id="filter4_d_0_1" x="25.5" y="19.0451" width="159.494" height="182.955" filterUnits="userSpaceOnUse" color-interpolation-filters="sRGB">
<feFlood flood-opacity="0" result="BackgroundImageFix"/>
<feColorMatrix in="SourceAlpha" type="matrix" values="0 0 0 0 0 0 0 0 0 0 0 0 0 0 0 0 0 0 127 0" result="hardAlpha"/>
<feOffset dy="4"/>
<feGaussianBlur stdDeviation="2"/>
<feComposite in2="hardAlpha" operator="out"/>
<feColorMatrix type="matrix" values="0 0 0 0 0 0 0 0 0 0 0 0 0 0 0 0 0 0 0.25 0"/>
<feBlend mode="normal" in2="BackgroundImageFix" result="effect1_dropShadow_0_1"/>
<feBlend mode="normal" in="SourceGraphic" in2="effect1_dropShadow_0_1" result="shape"/>
</filter>
</defs>
</svg>
